<svg width="16" height="17" viewBox="0 0 16 17" fill="none" xmlns="http://www.w3.org/2000/svg">
<path fill-rule="evenodd" clip-rule="evenodd" d="M8.00002 1.16666C3.95002 1.16666 0.666687 4.45 0.666687 8.5C0.666687 12.55 3.95002 15.8333 8.00002 15.8333C12.05 15.8333 15.3334 12.55 15.3334 8.5C15.3334 4.45 12.05 1.16666 8.00002 1.16666ZM7.66669 4.5C7.48988 4.5 7.32031 4.57024 7.19528 4.69526C7.07026 4.82028 7.00002 4.98985 7.00002 5.16666C7.00002 5.34348 7.07026 5.51304 7.19528 5.63807C7.32031 5.76309 7.48988 5.83333 7.66669 5.83333H8.00002C8.17683 5.83333 8.3464 5.76309 8.47142 5.63807C8.59645 5.51304 8.66669 5.34348 8.66669 5.16666C8.66669 4.98985 8.59645 4.82028 8.47142 4.69526C8.3464 4.57024 8.17683 4.5 8.00002 4.5H7.66669ZM6.66669 7.16666C6.48988 7.16666 6.32031 7.2369 6.19528 7.36193C6.07026 7.48695 6.00002 7.65652 6.00002 7.83333C6.00002 8.01014 6.07026 8.17971 6.19528 8.30474C6.32031 8.42976 6.48988 8.5 6.66669 8.5H7.33335V10.5H6.66669C6.48988 10.5 6.32031 10.5702 6.19528 10.6953C6.07026 10.8203 6.00002 10.9899 6.00002 11.1667C6.00002 11.3435 6.07026 11.513 6.19528 11.6381C6.32031 11.7631 6.48988 11.8333 6.66669 11.8333H9.33335C9.51016 11.8333 9.67973 11.7631 9.80476 11.6381C9.92978 11.513 10 11.3435 10 11.1667C10 10.9899 9.92978 10.8203 9.80476 10.6953C9.67973 10.5702 9.51016 10.5 9.33335 10.5H8.66669V7.83333C8.66669 7.65652 8.59645 7.48695 8.47142 7.36193C8.3464 7.2369 8.17683 7.16666 8.00002 7.16666H6.66669Z" fill="#828594"/>
</svg>
