<svg xmlns="http://www.w3.org/2000/svg" viewBox="0 0 989.05 997.94"><defs><style>.cls-1{fill:#4c505e;}</style></defs><title>BloodShell_logo</title><g id="Shell"><path class="cls-1" d="M12.15,567.62S33,513.22,99,465.78c0,0-45-22.37-89.76-1.67C9.27,464.11,3.38,514.43,12.15,567.62Z" transform="translate(-7.33 -1)"/><path class="cls-1" d="M146,427.09s-33.61-21.36-133-21.36c-.76-1.64,11.57-60.78,40.19-99.24,0,0,122.06-15,219.57,93C272.75,399.49,195.59,396.27,146,427.09Z" transform="translate(-7.33 -1)"/><path class="cls-1" d="M361.2,408.66s26.59,7.55,48.65,18.43c0,0-14.61-202.48-217.69-319.33,0,0-78.17,59.28-112.82,127C79.34,234.74,258.65,253.42,361.2,408.66Z" transform="translate(-7.33 -1)"/><path class="cls-1" d="M436.14,441.6l36.27,23.57S637.41,253,544.94,3.4c0,0-128.74-18.13-257.48,45.33C287.46,48.73,456.09,187.14,436.14,441.6Z" transform="translate(-7.33 -1)"/><path class="cls-1" d="M496.59,479.07l12.08,11.49s254.46-77.37,301.61-375.95c0,0-89.46-67.69-167.43-89.45C642.85,25.16,705.71,287.47,496.59,479.07Z" transform="translate(-7.33 -1)"/><path class="cls-1" d="M546.75,515.34l58,43.92s232.09-25.19,357.81-224.64c0,0-26.59-84.62-82.2-147.48C880.39,187.14,833.24,455.5,546.75,515.34Z" transform="translate(-7.33 -1)"/><path class="cls-1" d="M649.5,583.64s233.31-19.75,333.64-172.26C983.14,411.38,921.49,682.76,649.5,583.64Z" transform="translate(-7.33 -1)"/><g id="Camada_2" data-name="Camada 2"><path class="cls-1" d="M996.29,503.27c.88.16-4.12,79.39-36.54,168.05-7.38,20.16-20,54-43.1,92.43-13.28,22-66.24,105.63-172.32,167.51-88.47,51.61-170.15,62.68-203.47,65.79-18.65,1.74-116.94,9.83-217.34-29-47.46-18.36-86.13-43.62-91.47-47.15a566.72,566.72,0,0,1-53.54-40.5c-9.07-7.64-20.76-17.54-35.11-32a452.62,452.62,0,0,1-38.56-44.29C92.57,787.94,85.22,776,73.29,756.5,56,728.21,47.18,713.74,42.67,697.67a151,151,0,0,1-5.24-44.32c1.1-38.79,16.76-66.63,23-77.37,19.11-33.05,43.71-50.37,64.87-65.28,19.42-13.67,59.18-41,116.59-47.55,34.58-4,62.65.94,75.21,3.23,21.69,3.95,37.89,9.64,51.58,14.51a418.51,418.51,0,0,1,67.29,31c21.3,12.17,33.25,21.4,70.05,49.33,48.53,36.85,72.8,55.28,75.41,57,35.36,23.94,89.41,60.53,160,63.1,21.76.8,59.79-1.1,105.92-22a297.84,297.84,0,0,0,54.8-33.85c23.23-18.09,37.8-35,47.14-45.93,23.52-27.57,36.36-51.08,44.29-69.21C994.59,507.05,996.09,503.23,996.29,503.27Z" transform="translate(-7.33 -1)"/></g></g></svg>