<svg width="16" height="17" viewBox="0 0 16 17" fill="none" xmlns="http://www.w3.org/2000/svg">
<path d="M15.762 3.79134C15.2054 4.038 14.6074 4.20467 13.9787 4.28C14.6274 3.89186 15.1127 3.28098 15.344 2.56134C14.7346 2.92333 14.0676 3.17813 13.372 3.31467C12.9043 2.81525 12.2847 2.48422 11.6096 2.37299C10.9344 2.26175 10.2414 2.37653 9.63819 2.6995C9.03495 3.02248 8.55521 3.53558 8.27346 4.15914C7.99172 4.7827 7.92372 5.48184 8.08003 6.148C6.84515 6.086 5.63711 5.76504 4.53431 5.20594C3.43151 4.64684 2.45859 3.86211 1.67869 2.90267C1.41203 3.36267 1.25869 3.896 1.25869 4.464C1.2584 4.97533 1.38432 5.47883 1.62528 5.92982C1.86624 6.38082 2.2148 6.76536 2.64003 7.04934C2.14688 7.03364 1.66461 6.90039 1.23336 6.66067V6.70067C1.23331 7.41783 1.48138 8.11292 1.93548 8.668C2.38958 9.22308 3.02174 9.60396 3.72469 9.746C3.26722 9.86981 2.78759 9.88805 2.32203 9.79934C2.52036 10.4164 2.90669 10.956 3.42694 11.3426C3.94719 11.7292 4.57531 11.9435 5.22336 11.9553C4.12325 12.8189 2.76462 13.2874 1.36603 13.2853C1.11828 13.2854 0.870746 13.2709 0.624695 13.242C2.04435 14.1548 3.69692 14.6392 5.3847 14.6373C11.098 14.6373 14.2214 9.90534 14.2214 5.80134C14.2214 5.668 14.218 5.53334 14.212 5.4C14.8196 4.96065 15.344 4.4166 15.7607 3.79334L15.762 3.79134Z" fill="#828594"/>
</svg>
