<svg width="24" height="24" viewBox="0 0 24 24" fill="none" xmlns="http://www.w3.org/2000/svg">
<path d="M14.4 8.4H9.6C9.28174 8.4 8.97652 8.52643 8.75147 8.75147C8.52643 8.97652 8.4 9.28174 8.4 9.6V14.4C8.4 14.7183 8.52643 15.0235 8.75147 15.2485C8.97652 15.4736 9.28174 15.6 9.6 15.6H14.4C14.7183 15.6 15.0235 15.4736 15.2485 15.2485C15.4736 15.0235 15.6 14.7183 15.6 14.4V9.6C15.6 9.28174 15.4736 8.97652 15.2485 8.75147C15.0235 8.52643 14.7183 8.4 14.4 8.4ZM13.2 13.2H10.8V10.8H13.2V13.2ZM22.8 13.2C23.1183 13.2 23.4235 13.0736 23.6485 12.8485C23.8736 12.6235 24 12.3183 24 12C24 11.6817 23.8736 11.3765 23.6485 11.1515C23.4235 10.9264 23.1183 10.8 22.8 10.8H20.4V8.4H22.8C23.1183 8.4 23.4235 8.27357 23.6485 8.04853C23.8736 7.82348 24 7.51826 24 7.2C24 6.88174 23.8736 6.57652 23.6485 6.35147C23.4235 6.12643 23.1183 6 22.8 6H20.184C20.0048 5.49672 19.7159 5.03963 19.3381 4.66188C18.9604 4.28413 18.5033 3.99518 18 3.816V1.2C18 0.88174 17.8736 0.576515 17.6485 0.351472C17.4235 0.126428 17.1183 0 16.8 0C16.4817 0 16.1765 0.126428 15.9515 0.351472C15.7264 0.576515 15.6 0.88174 15.6 1.2V3.6H13.2V1.2C13.2 0.88174 13.0736 0.576515 12.8485 0.351472C12.6235 0.126428 12.3183 0 12 0C11.6817 0 11.3765 0.126428 11.1515 0.351472C10.9264 0.576515 10.8 0.88174 10.8 1.2V3.6H8.4V1.2C8.4 0.88174 8.27357 0.576515 8.04853 0.351472C7.82348 0.126428 7.51826 0 7.2 0C6.88174 0 6.57652 0.126428 6.35147 0.351472C6.12643 0.576515 6 0.88174 6 1.2V3.816C5.49672 3.99518 5.03963 4.28413 4.66188 4.66188C4.28413 5.03963 3.99518 5.49672 3.816 6H1.2C0.88174 6 0.576515 6.12643 0.351472 6.35147C0.126428 6.57652 0 6.88174 0 7.2C0 7.51826 0.126428 7.82348 0.351472 8.04853C0.576515 8.27357 0.88174 8.4 1.2 8.4H3.6V10.8H1.2C0.88174 10.8 0.576515 10.9264 0.351472 11.1515C0.126428 11.3765 0 11.6817 0 12C0 12.3183 0.126428 12.6235 0.351472 12.8485C0.576515 13.0736 0.88174 13.2 1.2 13.2H3.6V15.6H1.2C0.88174 15.6 0.576515 15.7264 0.351472 15.9515C0.126428 16.1765 0 16.4817 0 16.8C0 17.1183 0.126428 17.4235 0.351472 17.6485C0.576515 17.8736 0.88174 18 1.2 18H3.816C3.99518 18.5033 4.28413 18.9604 4.66188 19.3381C5.03963 19.7159 5.49672 20.0048 6 20.184V22.8C6 23.1183 6.12643 23.4235 6.35147 23.6485C6.57652 23.8736 6.88174 24 7.2 24C7.51826 24 7.82348 23.8736 8.04853 23.6485C8.27357 23.4235 8.4 23.1183 8.4 22.8V20.4H10.8V22.8C10.8 23.1183 10.9264 23.4235 11.1515 23.6485C11.3765 23.8736 11.6817 24 12 24C12.3183 24 12.6235 23.8736 12.8485 23.6485C13.0736 23.4235 13.2 23.1183 13.2 22.8V20.4H15.6V22.8C15.6 23.1183 15.7264 23.4235 15.9515 23.6485C16.1765 23.8736 16.4817 24 16.8 24C17.1183 24 17.4235 23.8736 17.6485 23.6485C17.8736 23.4235 18 23.1183 18 22.8V20.184C18.5033 20.0048 18.9604 19.7159 19.3381 19.3381C19.7159 18.9604 20.0048 18.5033 20.184 18H22.8C23.1183 18 23.4235 17.8736 23.6485 17.6485C23.8736 17.4235 24 17.1183 24 16.8C24 16.4817 23.8736 16.1765 23.6485 15.9515C23.4235 15.7264 23.1183 15.6 22.8 15.6H20.4V13.2H22.8ZM18 16.8C18 17.1183 17.8736 17.4235 17.6485 17.6485C17.4235 17.8736 17.1183 18 16.8 18H7.2C6.88174 18 6.57652 17.8736 6.35147 17.6485C6.12643 17.4235 6 17.1183 6 16.8V7.2C6 6.88174 6.12643 6.57652 6.35147 6.35147C6.57652 6.12643 6.88174 6 7.2 6H16.8C17.1183 6 17.4235 6.12643 17.6485 6.35147C17.8736 6.57652 18 6.88174 18 7.2V16.8Z" fill="#828594"/>
</svg>
