<svg width="24" height="24" viewBox="0 0 24 24" fill="none" xmlns="http://www.w3.org/2000/svg">
<path d="M23.25 21H22.5V23.25C22.5 23.4531 22.4258 23.6289 22.2773 23.7773C22.1289 23.9258 21.9531 24 21.75 24C21.5469 24 21.3711 23.9258 21.2227 23.7773C21.0742 23.6289 21 23.4531 21 23.25V21H19.5V23.25C19.5 23.4531 19.4258 23.6289 19.2773 23.7773C19.1289 23.9258 18.9531 24 18.75 24C18.5469 24 18.3711 23.9258 18.2227 23.7773C18.0742 23.6289 18 23.4531 18 23.25V21H16.5V23.25C16.5 23.4531 16.4258 23.6289 16.2773 23.7773C16.1289 23.9258 15.9531 24 15.75 24C15.5469 24 15.3711 23.9258 15.2227 23.7773C15.0742 23.6289 15 23.4531 15 23.25V21H13.5V23.25C13.5 23.4531 13.4258 23.6289 13.2773 23.7773C13.1289 23.9258 12.9531 24 12.75 24C12.5469 24 12.3711 23.9258 12.2227 23.7773C12.0742 23.6289 12 23.4531 12 23.25V21H10.5V23.25C10.5 23.4531 10.4258 23.6289 10.2773 23.7773C10.1289 23.9258 9.95312 24 9.75 24C9.54688 24 9.37109 23.9258 9.22266 23.7773C9.07422 23.6289 9 23.4531 9 23.25V21H7.5V23.25C7.5 23.4531 7.42578 23.6289 7.27734 23.7773C7.12891 23.9258 6.95312 24 6.75 24C6.54688 24 6.37109 23.9258 6.22266 23.7773C6.07422 23.6289 6 23.4531 6 23.25V21H4.5V4.5H23.25C23.4531 4.5 23.6289 4.57422 23.7773 4.72266C23.9258 4.87109 24 5.04688 24 5.25V20.25C24 20.4531 23.9258 20.6289 23.7773 20.7773C23.6289 20.9258 23.4531 21 23.25 21ZM22.5 7.5C22.5 7.09375 22.3555 6.74219 22.0664 6.44531C21.7773 6.14844 21.4219 6 21 6H10.5C10.0938 6 9.74219 6.14844 9.44531 6.44531C9.14844 6.74219 9 7.09375 9 7.5V16.5C9 16.9219 9.14844 17.2773 9.44531 17.5664C9.74219 17.8555 10.0938 18 10.5 18H21C21.4219 18 21.7773 17.8555 22.0664 17.5664C22.3555 17.2773 22.5 16.9219 22.5 16.5V7.5ZM20.25 16.5H11.25C11.0469 16.5 10.8711 16.4258 10.7227 16.2773C10.5742 16.1289 10.5 15.9531 10.5 15.75V8.25C10.5 8.04688 10.5742 7.87109 10.7227 7.72266C10.8711 7.57422 11.0469 7.5 11.25 7.5H20.25C20.4531 7.5 20.6289 7.57422 20.7773 7.72266C20.9258 7.87109 21 8.04688 21 8.25V15.75C21 15.9531 20.9258 16.1289 20.7773 16.2773C20.6289 16.4258 20.4531 16.5 20.25 16.5ZM16.5 9C15.6719 9 14.9648 9.29297 14.3789 9.87891C13.793 10.4648 13.5 11.1719 13.5 12C13.5 12.8281 13.793 13.5352 14.3789 14.1211C14.9648 14.707 15.6719 15 16.5 15C17.3281 15 18.0352 14.707 18.6211 14.1211C19.207 13.5352 19.5 12.8281 19.5 12C19.5 11.1719 19.207 10.4648 18.6211 9.87891C18.0352 9.29297 17.3281 9 16.5 9ZM16.5117 13.5C16.0977 13.5 15.7422 13.3555 15.4453 13.0664C15.1484 12.7773 15 12.4258 15 12.0117C15 11.5977 15.1484 11.2422 15.4453 10.9453C15.7422 10.6484 16.0977 10.5 16.5117 10.5C16.9258 10.5 17.2773 10.6445 17.5664 10.9336C17.8555 11.2227 18 11.5781 18 12C18 12.4219 17.8555 12.7773 17.5664 13.0664C17.2773 13.3555 16.9258 13.5 16.5117 13.5ZM3 21V23.25C3 23.4531 2.92578 23.6289 2.77734 23.7773C2.62891 23.9258 2.45312 24 2.25 24C2.04688 24 1.87109 23.9258 1.72266 23.7773C1.57422 23.6289 1.5 23.4531 1.5 23.25V1.5H0.75C0.546875 1.5 0.371094 1.42578 0.222656 1.27734C0.0742188 1.12891 0 0.953125 0 0.75C0 0.546875 0.0742188 0.371094 0.222656 0.222656C0.371094 0.0742188 0.546875 0 0.75 0H2.25C2.3125 0 2.35938 0.0078125 2.39062 0.0234375C2.5625 0.0546875 2.70703 0.136719 2.82422 0.269531C2.94141 0.402344 3 0.5625 3 0.75V21Z" fill="#828594"/>
</svg>
