<svg width="24" height="24" viewBox="0 0 24 24" fill="none" xmlns="http://www.w3.org/2000/svg">
<path d="M24 4H0.012L0 20H24V4ZM10.8 7.42857H13.2V9.71429H10.8V7.42857ZM10.8 10.8571H13.2V13.1429H10.8V10.8571ZM7.2 7.42857H9.6V9.71429H7.2V7.42857ZM7.2 10.8571H9.6V13.1429H7.2V10.8571ZM6 13.1429H3.6V10.8571H6V13.1429ZM6 9.71429H3.6V7.42857H6V9.71429ZM16.8 17.7143H7.2V15.4286H16.8V17.7143ZM16.8 13.1429H14.4V10.8571H16.8V13.1429ZM16.8 9.71429H14.4V7.42857H16.8V9.71429ZM20.4 13.1429H18V10.8571H20.4V13.1429ZM20.4 9.71429H18V7.42857H20.4V9.71429Z" fill="#828594"/>
</svg>
