<svg width="24" height="24" viewBox="0 0 24 24" fill="none" xmlns="http://www.w3.org/2000/svg">
<path d="M22.5 3H1.5C1.10218 3 0.720644 3.15804 0.43934 3.43934C0.158035 3.72064 0 4.10218 0 4.5V19.5C0 19.8978 0.158035 20.2794 0.43934 20.5607C0.720644 20.842 1.10218 21 1.5 21H22.5C22.8978 21 23.2794 20.842 23.5607 20.5607C23.842 20.2794 24 19.8978 24 19.5V4.5C24 4.10218 23.842 3.72064 23.5607 3.43934C23.2794 3.15804 22.8978 3 22.5 3ZM2.4075 4.5C2.59408 4.49403 2.7782 4.54389 2.93626 4.64321C3.09433 4.74252 3.21915 4.88677 3.29473 5.05746C3.37031 5.22815 3.39321 5.41752 3.36049 5.60131C3.32778 5.7851 3.24094 5.95494 3.1111 6.08907C2.98127 6.2232 2.81434 6.31551 2.63171 6.35418C2.44909 6.39285 2.25907 6.37612 2.08601 6.30614C1.91295 6.23615 1.76472 6.11608 1.66032 5.96133C1.55592 5.80658 1.5001 5.62418 1.5 5.4375C1.49988 5.19397 1.59452 4.95995 1.7639 4.78497C1.93328 4.60999 2.1641 4.50779 2.4075 4.5ZM2.4075 19.5C2.22208 19.5 2.04082 19.445 1.88665 19.342C1.73248 19.239 1.61232 19.0926 1.54136 18.9213C1.47041 18.75 1.45184 18.5615 1.48801 18.3796C1.52419 18.1977 1.61348 18.0307 1.74459 17.8996C1.8757 17.7685 2.04275 17.6792 2.2246 17.643C2.40646 17.6068 2.59496 17.6254 2.76627 17.6964C2.93757 17.7673 3.08399 17.8875 3.187 18.0417C3.29002 18.1958 3.345 18.3771 3.345 18.5625C3.345 18.8111 3.24623 19.0496 3.07041 19.2254C2.8946 19.4012 2.65614 19.5 2.4075 19.5ZM6.2025 15.165C5.22514 15.1869 4.27786 14.8263 3.5625 14.16L4.2075 13.365C4.75541 13.8894 5.48162 14.1869 6.24 14.1975C6.99 14.1975 7.4025 13.8225 7.4025 13.38C7.4025 12.9375 6.96 12.6975 5.97 12.465C4.695 12.165 3.8025 11.7975 3.8025 10.635C3.8025 9.4725 4.7175 8.7675 6.0525 8.7675C6.91301 8.7517 7.74809 9.0595 8.3925 9.63L7.785 10.455C7.29349 10.014 6.66018 9.76391 6 9.75C5.75453 9.72025 5.50725 9.78868 5.312 9.94038C5.11674 10.0921 4.98933 10.3148 4.9575 10.56C4.9575 11.0625 5.415 11.2425 6.3975 11.4675C7.6875 11.76 8.55 12.1725 8.55 13.2975C8.55 14.4225 7.68 15.165 6.2025 15.165ZM11.835 15.165C10.8576 15.1869 9.91036 14.8263 9.195 14.16L9.84 13.365C10.3879 13.8894 11.1141 14.1869 11.8725 14.1975C12.6225 14.1975 13.035 13.8225 13.035 13.38C13.035 12.9375 12.5925 12.6975 11.6025 12.465C10.3275 12.165 9.435 11.7975 9.435 10.635C9.435 9.4725 10.3575 8.7675 11.685 8.7675C12.5458 8.75022 13.3814 9.05822 14.025 9.63L13.4175 10.455C12.9345 9.99932 12.3034 9.73304 11.64 9.705C11.3945 9.67525 11.1473 9.74368 10.952 9.89538C10.7567 10.0471 10.6293 10.2698 10.5975 10.515C10.5975 11.0175 11.055 11.1975 12.0375 11.4225C13.3275 11.715 14.19 12.1275 14.19 13.2525C14.19 14.3775 13.3125 15.165 11.835 15.165ZM15.27 15.06V8.88H17.445C19.485 8.88 20.925 10.1625 20.925 11.97C20.925 13.7775 19.5 15.06 17.445 15.06H15.27ZM21.5175 19.5C21.3321 19.5 21.1508 19.445 20.9967 19.342C20.8425 19.239 20.7223 19.0926 20.6514 18.9213C20.5804 18.75 20.5618 18.5615 20.598 18.3796C20.6342 18.1977 20.7235 18.0307 20.8546 17.8996C20.9857 17.7685 21.1527 17.6792 21.3346 17.643C21.5165 17.6068 21.705 17.6254 21.8763 17.6964C22.0476 17.7673 22.194 17.8875 22.297 18.0417C22.4 18.1958 22.455 18.3771 22.455 18.5625C22.455 18.8111 22.3562 19.0496 22.1804 19.2254C22.0046 19.4012 21.7661 19.5 21.5175 19.5ZM21.5175 6.375C21.3321 6.375 21.1508 6.32002 20.9967 6.217C20.8425 6.11399 20.7223 5.96757 20.6514 5.79627C20.5804 5.62496 20.5618 5.43646 20.598 5.2546C20.6342 5.07275 20.7235 4.9057 20.8546 4.77459C20.9857 4.64348 21.1527 4.55419 21.3346 4.51801C21.5165 4.48184 21.705 4.50041 21.8763 4.57136C22.0476 4.64232 22.194 4.76248 22.297 4.91665C22.4 5.07082 22.455 5.25208 22.455 5.4375C22.455 5.68614 22.3562 5.9246 22.1804 6.10041C22.0046 6.27623 21.7661 6.375 21.5175 6.375Z" fill="#828594"/>
<path d="M16.5 10L18 10.0036C18.1677 9.98723 18.3358 10.0267 18.4937 10.1196C18.6517 10.2126 18.7963 10.357 18.9187 10.5439C19.041 10.7309 19.1385 10.9566 19.2051 11.207C19.2717 11.4574 19.3061 11.7272 19.3061 12C19.3061 12.2728 19.2717 12.5426 19.2051 12.793C19.1385 13.0434 19.041 13.2691 18.9187 13.4561C18.7963 13.6431 18.6517 13.7874 18.4937 13.8804C18.3358 13.9733 18.1677 14.0128 18 13.9964H16.5V10Z" fill="#828594"/>
</svg>
